<?xml version="1.0" encoding="UTF-8"?>
<svg xmlns="http://www.w3.org/2000/svg" xmlns:xlink="http://www.w3.org/1999/xlink" viewBox="0 0 24 24" width="24px" height="24px">
<g id="surface244375900">
<path style=" stroke:none;fill-rule:nonzero;fill:rgb(9.411765%,9.411765%,9.411765%);fill-opacity:1;" d="M 22 4 C 21.21875 4.460938 19.65625 5.09375 18.734375 5.273438 C 18.707031 5.28125 18.6875 5.289062 18.660156 5.296875 C 17.847656 4.496094 16.734375 4 15.5 4 C 13.015625 4 11 6.015625 11 8.5 C 11 8.628906 10.988281 8.871094 11 9 C 7.648438 9 5.09375 7.242188 3.265625 5 C 3.066406 5.5 2.980469 6.289062 2.980469 7.03125 C 2.980469 8.433594 4.074219 9.808594 5.777344 10.660156 C 5.464844 10.742188 5.117188 10.800781 4.757812 10.800781 C 4.179688 10.800781 3.5625 10.648438 3 10.183594 C 3 10.199219 3 10.214844 3 10.234375 C 3 12.191406 5.078125 13.523438 6.925781 13.894531 C 6.550781 14.117188 5.796875 14.140625 5.425781 14.140625 C 5.164062 14.140625 4.246094 14.019531 4 13.972656 C 4.515625 15.578125 6.367188 16.480469 8.136719 16.511719 C 6.753906 17.597656 5.792969 18 2.964844 18 L 2 18 C 3.789062 19.144531 6.066406 20 8.347656 20 C 15.777344 20 20 14.335938 20 9 C 20 8.914062 19.996094 8.734375 19.996094 8.550781 C 19.996094 8.535156 20 8.515625 20 8.5 C 20 8.472656 19.992188 8.445312 19.992188 8.417969 C 19.988281 8.28125 19.984375 8.15625 19.984375 8.089844 C 20.773438 7.519531 21.457031 6.808594 22 6 C 21.273438 6.320312 20.496094 6.535156 19.679688 6.636719 C 20.515625 6.136719 21.699219 4.941406 22 4 Z M 22 4 "/>
</g>
</svg>
